<?xml version="1.0" encoding="UTF-8" standalone="no"?>
<svg width="121px" height="12px" viewBox="0 0 121 12" version="1.1" xmlns="http://www.w3.org/2000/svg" xmlns:xlink="http://www.w3.org/1999/xlink">
    <g stroke="none" stroke-width="1" fill="none" fill-rule="evenodd">
        <path d="M0.568,6.32 L56.776,6.32 C60.04,6.32 60.04,8.576 60.04,9.92 L60.04,11.552 L60.856,11.552 L60.856,9.92 C60.856,8.576 60.904,6.32 64.168,6.32 L120.328,6.32 L120.328,5.072 L114.52,5.072 C107.032,5.072 70.744,4.64 62.728,4.64 C61.384,4.64 60.76,5.504 60.52,6.176 L60.376,6.176 C60.136,5.504 59.512,4.64 58.168,4.64 C50.152,4.64 13.912,5.072 6.424,5.072 L0.568,5.072 L0.568,6.32 Z M60.472,0.464 C59.848,0.464 59.416,0.896 59.416,1.52 C59.416,2.144 59.848,2.576 60.472,2.576 C61.096,2.576 61.48,2.144 61.48,1.52 C61.48,0.896 61.096,0.464 60.472,0.464 Z" id="-2" fill="#000000"></path>
    </g>
</svg>