<?xml version="1.0" encoding="UTF-8" standalone="no"?>
<svg width="57px" height="16px" viewBox="0 0 57 16" version="1.1" xmlns="http://www.w3.org/2000/svg" xmlns:xlink="http://www.w3.org/1999/xlink">
    <g stroke="none" stroke-width="1" fill="none" fill-rule="evenodd">
        <path d="M56.488,8.72 L52.6,8.72 C45.976,8.72 38.488,2.864 34.264,2.864 C32.584,2.864 30.856,3.392 30.28,6.032 L29.464,5.84 C30.28,2.096 32.488,1.184 34.84,1.184 C40.168,1.184 48.088,7.472 55.24,7.472 L56.488,7.472 L56.488,8.72 Z M0.568,8.72 L0.568,7.472 L4.504,7.472 C11.128,7.472 18.616,13.328 22.84,13.328 C24.52,13.328 26.248,12.8 26.824,10.16 L27.64,10.352 C26.824,14.096 24.568,15.008 22.216,15.008 C16.888,15.008 8.968,8.72 1.816,8.72 L0.568,8.72 Z M10.984,0.752 C17.272,0.752 43.768,14.624 49.624,14.624 L51.496,14.624 L51.496,15.44 L46.12,15.44 C39.832,15.44 13.336,1.616 7.48,1.616 L5.608,1.616 L5.608,0.752 L10.984,0.752 Z" id="19" fill="#000000"></path>
    </g>
</svg>