<?xml version="1.0" encoding="UTF-8" standalone="no"?>
<svg width="55px" height="15px" viewBox="0 0 55 15" version="1.1" xmlns="http://www.w3.org/2000/svg" xmlns:xlink="http://www.w3.org/1999/xlink">
    <g stroke="none" stroke-width="1" fill="none" fill-rule="evenodd">
        <path d="M54.856,8.32 L50.92,8.32 C44.296,8.32 36.808,2.464 32.584,2.464 C30.904,2.464 29.176,2.992 28.6,5.632 L27.784,5.44 C28.6,1.696 30.808,0.784 33.16,0.784 C38.488,0.784 46.408,7.072 53.56,7.072 L54.856,7.072 L54.856,8.32 Z M0.568,8.32 L0.568,7.072 L4.504,7.072 C11.128,7.072 18.616,12.928 22.84,12.928 C24.52,12.928 26.248,12.4 26.824,9.76 L27.64,9.952 C26.824,13.696 24.568,14.608 22.216,14.608 C16.888,14.608 8.968,8.32 1.816,8.32 L0.568,8.32 Z M18.328,3.712 C24.616,3.712 34.744,10.864 40.6,10.864 L41.032,10.864 L41.032,11.68 L37.096,11.68 C30.808,11.68 20.68,4.576 14.824,4.576 L14.344,4.576 L14.344,3.712 L18.328,3.712 Z" id="20" fill="#000000"></path>
    </g>
</svg>