<?xml version="1.0" encoding="UTF-8" standalone="no"?>
<svg width="65px" height="9px" viewBox="0 0 65 9" version="1.1" xmlns="http://www.w3.org/2000/svg" xmlns:xlink="http://www.w3.org/1999/xlink">
    <g stroke="none" stroke-width="1" fill="none" fill-rule="evenodd">
        <path d="M64.504,4.92 L60.184,4.92 C53.896,4.92 43.768,1.176 37.912,1.176 L37.48,1.176 L37.48,0.312 L41.416,0.312 C47.704,0.312 57.832,3.672 63.688,3.672 L64.504,3.672 L64.504,4.92 Z M23.176,1.992 C29.464,1.992 39.592,5.784 45.448,5.784 L45.88,5.784 L45.88,6.6 L41.944,6.6 C35.656,6.6 25.528,2.856 19.672,2.856 L19.192,2.856 L19.192,1.992 L23.176,1.992 Z M0.568,4.92 L0.568,3.672 L4.888,3.672 C11.176,3.672 21.304,7.464 27.16,7.464 L27.64,7.464 L27.64,8.28 L23.704,8.28 C17.416,8.28 7.288,4.92 1.432,4.92 L0.568,4.92 Z" id="21" fill="#000000"></path>
    </g>
</svg>