<?xml version="1.0" encoding="UTF-8" standalone="no"?>
<svg width="121px" height="17px" viewBox="0 0 121 17" version="1.1" xmlns="http://www.w3.org/2000/svg" xmlns:xlink="http://www.w3.org/1999/xlink">
    <g stroke="none" stroke-width="1" fill="none" fill-rule="evenodd">
        <path d="M0.568,10.92 L56.776,10.92 C60.04,10.92 60.04,13.176 60.04,14.52 L60.04,16.152 L60.856,16.152 L60.856,14.52 C60.856,13.176 60.904,10.92 64.168,10.92 L120.328,10.92 L120.328,9.672 L114.52,9.672 C107.032,9.672 70.744,9.24 62.728,9.24 C61.384,9.24 60.76,10.104 60.52,10.776 L60.376,10.776 C60.136,10.104 59.512,9.24 58.168,9.24 C50.152,9.24 13.912,9.672 6.424,9.672 L0.568,9.672 L0.568,10.92 Z M60.856,0.168 L60.04,0.168 L60.04,1.8 C60.04,3.144 60.04,5.4 56.776,5.4 L13.528,5.4 L13.528,6.216 L19,6.216 C26.488,6.216 50.152,6.984 58.168,6.984 C59.512,6.984 60.136,6.216 60.376,5.544 L60.52,5.544 C60.76,6.216 61.384,6.984 62.728,6.984 C70.744,6.984 94.408,6.216 101.896,6.216 L107.368,6.216 L107.368,5.4 L64.168,5.4 C60.904,5.4 60.856,3.144 60.856,1.8 L60.856,0.168 Z" id="-3" fill="#000000"></path>
    </g>
</svg>