<?xml version="1.0" encoding="UTF-8" standalone="no"?>
<svg width="27px" height="29px" viewBox="0 0 27 29" version="1.1" xmlns="http://www.w3.org/2000/svg" xmlns:xlink="http://www.w3.org/1999/xlink">
    <g id="Page-1" stroke="none" stroke-width="1" fill="none" fill-rule="evenodd">
        <path d="M26.964,28.216 L0.144,28.216 L0.144,0.64 L26.964,0.64 L26.964,28.216 Z M24.876,19.828 L20.484,15.616 C19.8359968,16.1920029 19.014005,16.7499973 18.018,17.29 C17.021995,17.8300027 16.2000032,18.1 15.552,18.1 C15.4319994,18.1 15.2880008,18.0400006 15.12,17.92 C14.2799958,16.7439941 13.86,16.1440001 13.86,16.12 C13.86,16.0239995 13.9439992,15.8440013 14.112,15.58 C12.7679933,14.8599964 11.496006,13.6600084 10.296,11.98 C6.47998092,15.8680194 4.32000252,20.4399737 3.816,25.696 L12.744,25.696 C13.1760022,22.8399857 14.4239897,20.3440107 16.488,18.208 L17.892,23.86 C19.6200086,23.86 21.383991,24.459994 23.184,25.66 L23.364,25.552 L21.492,22.348 C21.4439998,22.3720001 21.3600006,22.384 21.24,22.384 C20.9759987,22.384 20.748001,22.1440024 20.556,21.664 C20.556,21.5679995 20.5619999,21.4840004 20.574,21.412 C20.5860001,21.3399996 20.6279996,21.2800002 20.7,21.232 C20.7720004,21.1839998 20.8199999,21.1540001 20.844,21.142 C20.8680001,21.1299999 20.9459993,21.0940003 21.078,21.034 C21.2100007,20.9739997 21.2879999,20.944 21.312,20.944 C21.504001,20.944 21.6659993,21.0039994 21.798,21.124 C21.9300007,21.2440006 21.996,21.3879992 21.996,21.556 C21.996,21.8200013 21.9240007,22.0239993 21.78,22.168 L23.652,25.408 L23.796,25.3 C23.796,25.2279996 23.7900001,25.1320006 23.778,25.012 C23.7659999,24.8919994 23.76,24.8080002 23.76,24.76 C23.76,22.959991 24.1319963,21.3160074 24.876,19.828 Z M25.812,14.032 L25.812,5.032 C24.6599942,5.08000024 23.280008,5.25999844 21.672,5.572 C20.063992,5.88400156 18.8880037,6.25599784 18.144,6.688 L15.048,8.488 L14.832,8.128 L17.892,6.292 C17.8439998,6.292 17.7960002,6.2320006 17.748,6.112 L14.688,7.876 C14.6639999,7.80399964 14.6040005,7.69600072 14.508,7.552 L17.532,5.716 L17.352,5.536 L14.364,7.264 L11.232,1.792 L10.404,1.792 C11.8440072,4.16801188 12.959996,6.11199244 13.752,7.624 L13.356,7.876 L9.864,1.792 L9.504,1.792 C10.6320056,3.68800948 11.8199938,5.76398872 13.068,8.02 L9.288,10.288 C9.288,10.3360002 9.32399964,10.3959996 9.396,10.468 L13.248,8.272 C13.248,8.32000024 13.3079994,8.43999904 13.428,8.632 L9.576,10.864 C9.62400024,10.9120002 9.67199976,10.9839995 9.72,11.08 L13.536,8.884 C13.6560006,9.05200084 13.716,9.17199964 13.716,9.244 L9.936,11.512 C10.0080004,11.5360001 10.0559999,11.5959995 10.08,11.692 L13.86,9.496 C14.5080032,10.7680064 15.2639957,12.3519905 16.128,14.248 C16.1760002,14.2960002 16.2899991,14.3319999 16.47,14.356 C16.6500009,14.3800001 16.7879995,14.4519994 16.884,14.572 C16.9320002,14.6440004 17.1239983,15.0099967 17.46,15.67 C17.7960017,16.3300033 18.0719989,16.6839998 18.288,16.732 L18.324,16.624 C18.324,16.3839988 17.9160041,15.6520061 17.1,14.428 C17.0039995,14.2599992 16.752002,14.1280005 16.344,14.032 C16.0799987,13.4079969 15.3360061,11.8480125 14.112,9.352 L14.544,9.136 C14.6160004,9.28000072 14.8439981,9.76599586 15.228,10.594 C15.6120019,11.4220041 15.9779983,12.1899965 16.326,12.898 C16.6740017,13.6060035 16.8719998,13.9719999 16.92,13.996 C16.9440001,13.996 17.0999986,14.0319996 17.388,14.104 C17.4840005,14.1760004 17.7119982,14.5419967 18.072,15.202 C18.4320018,15.8620033 18.7319988,16.192 18.972,16.192 C19.0440004,16.192 19.1279995,16.1440005 19.224,16.048 L19.224,15.94 L19.26,15.868 C19.26,15.6519989 19.0680019,15.2260032 18.684,14.59 C18.2999981,13.9539968 18.012001,13.5880005 17.82,13.492 C17.7479996,13.4679999 17.5920012,13.4200004 17.352,13.348 C17.0879987,12.8439975 16.7160024,12.0760052 16.236,11.044 C15.7559976,10.0119948 15.3960012,9.24400252 15.156,8.74 L18.252,6.976 C18.6360019,7.62400324 18.9539987,8.46399484 19.206,9.496 C19.4580013,10.5280052 19.584,11.4519959 19.584,12.268 L19.584,12.412 C19.8960016,12.412 20.1299992,12.513999 20.286,12.718 C20.4420008,12.922001 20.5919993,13.227998 20.736,13.636 C20.8800007,14.044002 21.0239993,14.3679988 21.168,14.608 C21.168,14.7040005 21.072001,14.8839987 20.88,15.148 C22.488008,14.4279964 24.1319916,14.0560001 25.812,14.032 Z M8.676,9.28 L4.392,1.792 L1.296,1.792 L1.296,22.168 C2.52000612,17.1279748 4.97998152,12.8320178 8.676,9.28 Z M25.812,1.936 L25.812,1.792 L15.228,1.792 L16.56,4.06 C19.4160143,2.78799364 22.4999834,2.08000072 25.812,1.936 Z M12.6,27.064 C12.6,26.7279983 12.6119999,26.464001 12.636,26.272 L3.744,26.272 C3.744,26.3440004 3.73800006,26.4519993 3.726,26.596 C3.71399994,26.7400007 3.708,26.8479996 3.708,26.92 L3.708,27.064 L12.6,27.064 Z M14.4,8.848 L13.968,9.1 L13.788,8.74 L14.22,8.488 L14.4,8.848 Z M14.076,8.236 L13.68,8.488 L13.464,8.128 L13.896,7.876 L14.076,8.236 Z" id="LOGO" fill="#000000"></path>
    </g>
</svg>